<svg xmlns="http://www.w3.org/2000/svg" viewBox="0 0 800 600" width="100%" height="100%">
    <rect x="0" y="0" fill="#ca8a04" stroke="#ca8a04" stroke-width="2"/>
    <rect x="0" y="0" fill="#eab308" stroke="#eab308" stroke-width="2"/>

    <!-- Mandala Pattern -->
    <path d="M 150,60 L 750,60 A 400,400 0 1 1 150,600 M 150,600 L 750,600 A 400,400 0 1 1 150,200" fill="none" stroke="#ca8a04"/>
    <path d="M 300,60 L 750,60 A 400,400 0 1 1 300,600 M 300,600 L 750,600 A 400,400 0 1 1 300,200" fill="none" stroke="#eab308"/>

    <!-- Corner Motifs -->
    <path d="M 150,60 L 750,60 A 400,400 0 1 1 150,600 M 150,600 L 750,600 A 400,400 0 1 1 150,200" fill="none"/>
    <path d="M 300,60 L 750,60 A 400,400 0 1 1 300,600 M 300,600 L 750,600 A 400,400 0 1 1 300,200" fill="none"/>

    <!-- Lord Ganesha Silhouette -->
    <path d="M 400,300 C 380,300 360,320 350,340 L 370,360 M 410,380 A 20,20 0 1 1 430,400" fill="none"/>
    <path d="M 440,380 C 450,380 470,400 490,420 L 510,440 M 420,460 A 20,20 0 1 1 440,480" fill="none"/>

    <!-- Diya Lamp -->
    <path d="M 300,300 C 320,300 340,320 350,340 L 370,360 M 310,380 A 20,20 0 1 1 330,400" fill="none"/>
    <path d="M 340,380 C 350,380 370,400 390,420 L 410,440 M 330,460 A 20,20 0 1 1 350,480" fill="none"/>

    <!-- Text -->
    <text x="400" y="370" font-family="Serif" font-size="48" text-anchor="middle">A sacred fire ceremony with offerings</text>
</svg>