<svg viewBox="0 0 800 600" width="100%" height="100%">
    <!-- Background -->
    <rect x="0" y="0" width="800" height="600" fill="#f97316"/>
    
    <!-- Top Border -->
    <rect x="0" y="0" width="400" height="20" rx="5" ry="5" fill="#881337"/>
    <rect x="400" y="0" width="400" height="20" rx="5" ry="5" fill="#881337"/>
    
    <!-- Bottom Border -->
    <rect x="0" y="580" width="800" height="20" rx="5" ry="5" fill="#881337"/>
    <rect x="400" y="580" width="400" height="20" rx="5" ry="5" fill="#881337"/>
    
    <!-- Corner Motifs -->
    <polygon points="400,60 400,620 800,620 800,60" fill="#ca8a04"/>
    <polygon points="400,580 400,560 800,560 800,580" fill="#ca8a04"/>
    
    <!-- Diya with Glow -->
    <circle cx="400" cy="300" r="120" fill="#eab308" stroke="#f97316" stroke-width="5" stroke-dasharray="5, 5"/>
    
    <!-- Lord Ganesha Silhouette -->
    <path d="M 400 300 L 400 280 A 20 20 0 0 1 420 260 A 20 20 0 0 1 440 260 A 20 20 0 0 1 460 260 A 20 20 0 0 1 480 260 M 500 300 L 500 280 A 20 20 0 0 1 520 260 A 20 20 0 0 1 540 260 A 20 20 0 0 1 560 260 A 20 20 0 0 1 580 260 M 600 300 L 600 280 A 20 20 0 0 1 620 260 A 20 20 0 0 1 640 260 A 20 20 0 0 1 660 260 A 20 20 0 0 1 680 260 M 700 300 L 700 280 A 20 20 0 0 1 720 260 A 20 20 0 0 1 740 260 A 20 20 0 0 1 760 260 A 20 20 0 0 1 780 260" fill="#ca8a04"/>
    
    <!-- Text "Namakaranam" -->
    <text x="400" y="350" font-family="Serif" font-size="48" text-anchor="middle">Namakaranam</text>
</svg>